<?xml version="1.0" encoding="iso-8859-1"?>
<!-- Generator: Adobe Illustrator 19.0.0, SVG Export Plug-In . SVG Version: 6.00 Build 0)  -->
<svg version="1.1" id="Layer_1" xmlns="http://www.w3.org/2000/svg" xmlns:xlink="http://www.w3.org/1999/xlink" x="0px" y="0px"
	 viewBox="0 0 503.322 503.322" style="enable-background:new 0 0 503.322 503.322;" xml:space="preserve">
<g>
	<g>
		<path style="fill:#FAC176;" d="M78.101,173.559c-4.79,0-8.678-3.879-8.678-8.678v-43.39c0-4.799,3.888-8.678,8.678-8.678
			s8.678,3.879,8.678,8.678v43.39C86.779,169.68,82.891,173.559,78.101,173.559"/>
		<path style="fill:#FAC176;" d="M251.66,173.559c-4.79,0-8.678-3.879-8.678-8.678V95.458c0-4.799,3.888-8.678,8.678-8.678
			s8.678,3.879,8.678,8.678v69.424C260.338,169.68,256.45,173.559,251.66,173.559"/>
		<path style="fill:#FAC176;" d="M425.219,173.559c-4.79,0-8.678-3.879-8.678-8.678v-43.39c0-4.799,3.888-8.678,8.678-8.678
			c4.79,0,8.678,3.879,8.678,8.678v43.39C433.897,169.68,430.01,173.559,425.219,173.559"/>
	</g>
	<path style="fill:#BDC3C7;" d="M331.999,442.576H171.318c-18.727,0-34.703,13.555-37.74,32.039l-3.41,20.029H373.15l-3.41-20.029
		C366.702,456.131,350.726,442.576,331.999,442.576"/>
	<path style="fill:#ECF0F1;" d="M295.05,442.576c0-17.781-10.726-33.028-26.034-39.728v-29.696h-34.712v29.696
		c-15.308,6.699-26.034,21.947-26.034,39.728H295.05z"/>
	<path style="fill:#BDC3C7;" d="M277.694,373.153h-52.068c-19.17,0-34.712-15.542-34.712-34.712h121.492
		C312.406,357.61,296.864,373.153,277.694,373.153"/>
	<polygon style="fill:#ECF0F1;" points="0,338.441 503.322,338.441 503.322,303.729 0,303.729 	"/>
	<g>
		<path style="fill:#C03A2B;" d="M77.474,43.39c4.903-10.83,16.367-17.356,29.401-17.356c17.547,0,30.191,13.989,31.779,30.659
			c0,0,0.859,4.148-1.033,11.594c-2.569,10.145-8.617,19.161-16.757,26.034l-42.765,35.849L35.343,94.321
			c-8.149-6.882-14.188-15.889-16.766-26.043c-1.883-7.446-1.024-11.585-1.024-11.585c1.588-16.67,14.223-30.659,31.779-30.659
			C62.357,26.034,72.571,32.56,77.474,43.39"/>
		<path style="fill:#C03A2B;" d="M251.034,17.356C255.937,6.526,267.4,0,280.435,0c17.547,0,30.191,13.989,31.779,30.659
			c0,0,0.859,4.148-1.033,11.594c-2.569,10.145-8.617,19.161-16.757,26.034l-42.765,35.849l-42.756-35.849
			c-8.149-6.882-14.188-15.889-16.766-26.043c-1.883-7.446-1.024-11.585-1.024-11.585C192.7,13.989,205.335,0,222.891,0
			C235.917,0,246.131,6.526,251.034,17.356"/>
	</g>
	<path style="fill:#CC66A1;" d="M407.864,251.661c34.833,0,26.034-34.712,69.424-34.712c9.546,0,17.356-7.81,17.356-17.356v-17.391
		c0-9.563-7.758-17.321-17.33-17.321h-0.026H26.007c-9.572,0-17.33,7.758-17.33,17.321v17.391c0,9.546,7.81,17.356,17.356,17.356
		h17.356c21.33,0,52.068,15.933,52.068,34.712v8.678c0,8.652,8.704,17.356,17.356,17.356c8.678,0,17.356-8.678,17.356-17.356v-8.678
		c0-25.201,17.356-34.712,43.39-34.712c43.39,0,43.268,34.712,78.102,34.712s34.712-34.712,78.102-34.712
		S373.039,251.661,407.864,251.661"/>
	<path style="fill:#FAC176;" d="M407.868,251.661L407.868,251.661L407.868,251.661L407.868,251.661
		c-34.833,0-34.712-34.712-78.102-34.712s-43.277,34.712-78.102,34.712c-34.833,0-34.712-34.712-78.102-34.712
		c-26.034,0-43.39,9.511-43.39,34.712v8.678c0,8.678-8.678,17.356-17.356,17.356c-8.661,0-17.356-8.704-17.356-17.356v-8.678
		c0-18.779-30.737-34.712-52.068-34.712v86.78h416.542v-84.254C435.707,227.397,437.026,251.661,407.868,251.661"/>
	<path style="fill:#C03A2B;" d="M425.847,43.39c-4.903-10.83-16.367-17.356-29.401-17.356c-17.547,0-30.191,13.989-31.779,30.659
		c0,0-0.859,4.148,1.033,11.594c2.569,10.145,8.617,19.161,16.757,26.034l42.765,35.849l42.756-35.849
		c8.149-6.882,14.188-15.889,16.766-26.043c1.883-7.446,1.024-11.585,1.024-11.585c-1.588-16.67-14.223-30.659-31.779-30.659
		C440.964,26.034,430.75,32.56,425.847,43.39"/>
	<path style="fill:#ECF0F1;" d="M407.864,503.322H95.457c-4.79,0-8.678-3.879-8.678-8.678s3.888-8.678,8.678-8.678h312.407
		c4.79,0,8.678,3.879,8.678,8.678S412.654,503.322,407.864,503.322"/>
</g>
<g>
</g>
<g>
</g>
<g>
</g>
<g>
</g>
<g>
</g>
<g>
</g>
<g>
</g>
<g>
</g>
<g>
</g>
<g>
</g>
<g>
</g>
<g>
</g>
<g>
</g>
<g>
</g>
<g>
</g>
</svg>
